<svg width="56" height="54" viewBox="0 0 56 54" fill="none" xmlns="http://www.w3.org/2000/svg">
<path d="M44.4392 38.6385H30.3248C30.3248 38.6385 30.2706 38.6385 30.2525 38.6385L24.0537 37.8253L33.2706 47.0421C37.9152 45.6686 41.873 42.6325 44.4392 38.6385Z" fill="#F2C94C"/>
<path d="M37.1198 33.5963C37.1198 33.5963 37.1017 33.6144 37.0836 33.6325L32.1318 37.4277H45.1619C46.7161 34.5903 47.6017 31.3373 47.6017 27.8674C47.6017 26.4036 47.4391 24.9578 47.1319 23.5843L37.1559 33.5602C37.1559 33.5602 37.1379 33.5602 37.1198 33.5783V33.5963Z" fill="#F2C94C"/>
<path d="M22.6802 36.4156L30.1621 37.3915L36.144 32.8011L37.1199 25.3192L32.5296 19.3373L25.0477 18.3614L19.0657 22.9518L18.0898 30.4337L22.6802 36.4156ZM27.6139 22.6084C30.5236 22.6084 32.891 24.9759 32.891 27.8855C32.891 30.7951 30.5236 33.1626 27.6139 33.1626C24.7043 33.1626 22.3368 30.7951 22.3368 27.8855C22.3368 24.9759 24.7043 22.6084 27.6139 22.6084Z" fill="#F2C94C"/>
<path d="M24.8859 17.0963C24.8859 17.0963 24.904 17.0963 24.9221 17.0963H24.9582L31.157 17.9096L21.9402 8.69275C17.2956 10.0662 13.3377 13.1024 10.7715 17.0963H24.8859Z" fill="#F2C94C"/>
<path d="M18.0903 22.1386C18.0903 22.1386 18.1084 22.1205 18.1264 22.1024L23.0782 18.3073H10.0481C8.49392 21.1446 7.6084 24.3976 7.6084 27.8675C7.6084 29.3314 7.77104 30.7771 8.07827 32.1506L18.0541 22.1747C18.0541 22.1747 18.0723 22.1747 18.0903 22.1567V22.1386Z" fill="#F2C94C"/>
<path d="M38.3855 11.024V25.1385C38.3855 25.1385 38.3855 25.1566 38.3855 25.1746V25.2108L37.5723 31.4096L46.7891 22.1927C45.4156 17.5482 42.3795 13.5903 38.3855 11.024Z" fill="#F2C94C"/>
<path d="M16.8255 44.7108V30.5964C16.8255 30.5964 16.8255 30.5783 16.8255 30.5602V30.5241L17.6387 24.3253L8.42188 33.5422C9.79537 38.1868 12.8315 42.1446 16.8255 44.7108Z" fill="#F2C94C"/>
<path d="M27.5956 31.9156C29.8184 31.9156 31.6438 30.1084 31.6438 27.8675C31.6438 27.6145 31.6257 27.3795 31.5715 27.1446C31.192 27.7952 30.4872 28.2289 29.6739 28.2289C28.4631 28.2289 27.4691 27.2349 27.4691 26.0241C27.4691 25.1205 28.0112 24.3434 28.7883 24C28.4088 23.8735 27.9932 23.8193 27.5775 23.8193C25.3546 23.8193 23.5293 25.6265 23.5293 27.8675C23.5293 30.1084 25.3366 31.9156 27.5775 31.9156H27.5956Z" fill="#F2C94C"/>
<path d="M23.313 8.33126L33.2889 18.3072C33.2889 18.3072 33.2889 18.3252 33.3069 18.3433C33.3069 18.3433 33.325 18.3614 33.3431 18.3795L37.1382 23.3313V10.3012C34.3009 8.74694 31.0479 7.86139 27.578 7.86139C26.1142 7.86139 24.6684 8.02403 23.2949 8.33126H23.313Z" fill="#F2C94C"/>
<path d="M31.8975 47.4036L21.9217 37.4277C21.9217 37.4277 21.9217 37.4096 21.9036 37.3915C21.9036 37.3915 21.8855 37.3735 21.8675 37.3554L18.0723 32.4036V45.4337C20.9096 46.9879 24.1626 47.8734 27.6325 47.8734C29.0964 47.8734 30.5421 47.7108 31.9156 47.4036H31.8975Z" fill="#F2C94C"/>
<path d="M29.6927 27C30.2348 27 30.6686 26.5662 30.6686 26.0241C30.6686 25.4819 30.2348 25.0482 29.6927 25.0482C29.1505 25.0482 28.7168 25.4819 28.7168 26.0241C28.7168 26.5662 29.1505 27 29.6927 27Z" fill="#F2C94C"/>
<path d="M3.07167 14.1326C3.75039 14.1326 4.3006 13.5824 4.3006 12.9036C4.3006 12.2249 3.75039 11.6747 3.07167 11.6747C2.39296 11.6747 1.84277 12.2249 1.84277 12.9036C1.84277 13.5824 2.39296 14.1326 3.07167 14.1326Z" fill="#F2C94C"/>
<path d="M19.0121 3.09039C19.6808 3.09039 20.2411 3.63255 20.2411 4.31929C20.2411 5.00604 19.6989 5.54822 19.0121 5.54822C18.3254 5.54822 17.7832 5.00604 17.7832 4.31929C17.7832 3.63255 18.3254 3.09039 19.0121 3.09039Z" fill="#F2C94C"/>
<path d="M53.3676 11.6747C54.0362 11.6747 54.5965 12.2169 54.5965 12.9036C54.5965 13.5904 54.0543 14.1326 53.3676 14.1326C52.6808 14.1326 52.1387 13.5904 52.1387 12.9036C52.1387 12.2169 52.6808 11.6747 53.3676 11.6747Z" fill="#F2C94C"/>
<path d="M54.5961 44.8012C55.2748 44.8012 55.825 44.2509 55.825 43.5722C55.825 42.8935 55.2748 42.3433 54.5961 42.3433C53.9174 42.3433 53.3672 42.8935 53.3672 43.5722C53.3672 44.2509 53.9174 44.8012 54.5961 44.8012Z" fill="#F2C94C"/>
<path d="M49.6801 47.2589C50.3487 47.2589 50.909 47.8011 50.909 48.4878C50.909 49.1746 50.3668 49.7167 49.6801 49.7167C48.9933 49.7167 48.4512 49.1746 48.4512 48.4878C48.4512 47.8011 48.9933 47.2589 49.6801 47.2589Z" fill="#F2C94C"/>
<path d="M6.45175 7.98799L8.18667 6.25304L9.92162 7.98799L11.6565 6.25304L9.92162 4.51809L11.6565 2.78317L9.92162 1.04822L8.18667 2.78317L6.45175 1.04822L4.7168 2.78317L6.45175 4.51809L4.7168 6.25304L6.45175 7.98799Z" fill="#F2C94C"/>
<path d="M52.1385 52.7711H35.512C46.0662 49.4097 53.7289 39.5241 53.7289 27.8675C53.7289 13.4639 42 1.73499 27.5964 1.73499C27.253 1.73499 26.9819 2.00606 26.9819 2.34944C26.9819 2.69281 27.253 2.96389 27.5964 2.96389C41.3313 2.96389 52.5 14.1326 52.5 27.8675C52.5 41.6024 41.3313 52.7711 27.5964 52.7711C13.8614 52.7711 2.6928 41.6024 2.6928 27.8675C2.6928 27.5241 2.42172 27.253 2.07835 27.253C1.73497 27.253 1.46387 27.5241 1.46387 27.8675C1.46387 39.5241 9.12654 49.4097 19.6808 52.7711H11.6566C11.3133 52.7711 11.0422 53.0422 11.0422 53.3856C11.0422 53.7289 11.3133 54 11.6566 54H52.1385C52.4819 54 52.753 53.7289 52.753 53.3856C52.753 53.0422 52.4819 52.7711 52.1385 52.7711Z" fill="#F2C94C"/>
<path d="M3.07228 46.6445C1.37349 46.6445 0 48.018 0 49.7168C0 51.4156 1.37349 52.7891 3.07228 52.7891C4.77108 52.7891 6.14459 51.4156 6.14459 49.7168C6.14459 48.018 4.77108 46.6445 3.07228 46.6445Z" fill="#F2C94C"/>
<path d="M51.5237 7.37349C53.5478 7.37349 55.2104 5.72893 55.2104 3.68676C55.2104 1.64459 53.5658 0 51.5237 0C49.4815 0 47.8369 1.64459 47.8369 3.68676C47.8369 5.71086 49.4815 7.37349 51.5237 7.37349Z" fill="#F2C94C"/>
</svg>
