<svg width="152" height="100" viewBox="0 0 152 100" fill="none" xmlns="http://www.w3.org/2000/svg">
<path d="M72.3984 21.1359L78.7371 32.1165C79.4539 32.1019 80.1706 32.097 80.8972 32.097C82.75 32.097 84.5834 32.1409 86.3826 32.2189L72.3984 8L57.0342 34.613C59.7013 34.0035 62.5343 33.4964 65.494 33.0966L72.4032 21.1359H72.3984ZM61.0179 31.7508L72.3984 12.0422L82.8183 30.093C82.1747 30.0833 81.5359 30.0784 80.8923 30.0784C80.5607 30.0784 80.2292 30.0784 79.8927 30.0784L74.1439 20.1217L72.3935 17.0888L70.643 20.1217L64.2311 31.2291C63.1486 31.3851 62.0711 31.5558 61.0179 31.746V31.7508Z" fill="#06171E"/>
<path d="M62.9729 68.4425C55.0495 64.9611 50.2028 60.2996 50.2028 55.1799C50.2028 53.4733 50.7391 51.8203 51.7484 50.2454H96.7877L88.5815 36.0368C91.7021 35.7784 94.9349 35.6419 98.2457 35.6419C102.707 35.6419 107.022 35.8906 111.118 36.3538C110.884 36.2758 110.64 36.2026 110.397 36.1295C110.635 36.2026 110.879 36.2758 111.118 36.3538C111.391 36.383 111.664 36.4171 111.942 36.4513C111.221 36.266 110.484 36.0953 109.738 35.9247C103.048 34.4326 95.3493 33.5793 87.1577 33.5696C87.1089 33.5696 87.0602 33.5696 87.0114 33.5696C85.1488 33.5696 83.3106 33.6135 81.5016 33.7012C80.897 33.7305 80.3021 33.7646 79.7072 33.7988C73.9975 34.1547 68.6339 34.93 63.8067 36.0368C63.3874 36.1343 62.9778 36.2319 62.5682 36.3294C59.706 37.0315 57.0486 37.8556 54.635 38.782C45.7364 42.1952 40.1973 47.0078 40.1973 52.3372C40.1973 59.1782 49.33 65.1658 62.9827 68.4474L62.9729 68.4425ZM81.4723 36.8609L85.4072 43.6726H59.4037C64.9087 40.6007 72.5688 38.2066 81.4723 36.8609Z" fill="#06171E"/>
<path d="M44.5369 81.8903C44.7856 81.7781 45.0001 81.6221 45.1854 81.4319C45.3707 81.2369 45.517 81.0175 45.6194 80.7688C45.7266 80.5201 45.7754 80.2568 45.7754 79.9789V79.423H44.4881V79.8619C44.4881 80.0374 44.4638 80.1837 44.4101 80.3056C44.3614 80.4226 44.298 80.5152 44.22 80.5835C44.1371 80.6518 44.0444 80.7005 43.9469 80.7298C43.8494 80.759 43.7616 80.7737 43.6739 80.7737C43.3813 80.7737 43.1765 80.6859 43.0644 80.5104C42.9522 80.3348 42.8937 80.1154 42.8937 79.857V75.2687C42.8937 74.9664 42.9473 74.7177 43.0497 74.5178C43.157 74.3228 43.3667 74.2204 43.6885 74.2204C43.9323 74.2204 44.1273 74.313 44.2687 74.4983C44.4101 74.6836 44.4833 74.903 44.4833 75.1517V75.5808H45.7705V75.0785C45.7705 74.7665 45.7169 74.4788 45.6145 74.2155C45.5072 73.9522 45.3658 73.723 45.1805 73.528C44.8002 73.133 44.3126 72.9331 43.7031 72.9331C43.391 72.9331 43.1082 72.9867 42.8498 73.0891C42.5914 73.1964 42.372 73.3378 42.1867 73.5231C42.0014 73.7084 41.86 73.9278 41.7576 74.1765C41.6552 74.43 41.6064 74.7031 41.6064 74.9956V79.9399C41.6064 80.3494 41.6698 80.6908 41.8015 80.9541C41.9331 81.2174 42.0989 81.4368 42.2988 81.6026C42.4987 81.7732 42.7279 81.8903 42.9815 81.9536C43.235 82.0219 43.4837 82.056 43.7275 82.056C44.0152 82.056 44.2785 81.9975 44.5271 81.8854L44.5369 81.8903Z" fill="#06171E"/>
<path d="M56.1023 75.1273C56.1023 74.7665 56.039 74.4447 55.9122 74.1716C55.7854 73.8937 55.6245 73.6645 55.4197 73.4792C55.21 73.3037 54.976 73.1672 54.7225 73.0745C54.464 72.9819 54.2056 72.938 53.9472 72.938C53.6888 72.938 53.4303 72.9819 53.1719 73.0745C52.9135 73.1672 52.6843 73.3037 52.4844 73.4792C52.2747 73.6645 52.1041 73.8937 51.9822 74.1716C51.8554 74.4495 51.792 74.7665 51.792 75.1273V79.8667C51.792 80.2471 51.8554 80.5689 51.9822 80.837C52.1089 81.1052 52.2747 81.3295 52.4844 81.5051C52.6843 81.6903 52.9135 81.8269 53.1719 81.9195C53.4303 82.0122 53.6888 82.056 53.9472 82.056C54.2056 82.056 54.464 82.0073 54.7225 81.9195C54.9809 81.8269 55.21 81.6903 55.4197 81.5051C55.6196 81.3295 55.7854 81.1052 55.9122 80.837C56.039 80.5689 56.1023 80.2422 56.1023 79.8667V75.1273ZM54.8151 79.8667C54.8151 80.1788 54.7273 80.408 54.5567 80.5542C54.386 80.7005 54.1812 80.7737 53.9472 80.7737C53.7131 80.7737 53.5083 80.7005 53.3377 80.5542C53.167 80.408 53.0793 80.1788 53.0793 79.8667V75.1273C53.0793 74.8152 53.167 74.5861 53.3377 74.4398C53.5083 74.2935 53.7131 74.2204 53.9472 74.2204C54.1812 74.2204 54.386 74.2935 54.5567 74.4398C54.7273 74.5861 54.8151 74.8152 54.8151 75.1273V79.8667Z" fill="#06171E"/>
<path d="M65.1912 77.7604H65.1669L63.5139 73.0063H62.2803V81.983H63.5627V76.5268H63.5919L64.8499 80.3837H65.4935L66.7662 76.5268H66.7905V81.983H68.0778V73.0063H66.8295L65.1912 77.7604Z" fill="#06171E"/>
<path d="M77.9227 73.6402C77.7033 73.4062 77.4595 73.2404 77.1913 73.1478C76.9231 73.0551 76.6111 73.0112 76.26 73.0112H74.3291V81.9879H75.6164V78.4821H76.2697C76.7476 78.4821 77.1377 78.3992 77.4302 78.2383C77.7228 78.0725 77.9617 77.8433 78.1372 77.5508C78.2884 77.307 78.3859 77.0485 78.4347 76.7706C78.4786 76.4927 78.5029 76.1514 78.5029 75.7515C78.5029 75.2152 78.4591 74.7861 78.3762 74.474C78.2933 74.1571 78.1421 73.884 77.9227 73.65V73.6402ZM77.2742 76.3756C77.2596 76.5609 77.2206 76.717 77.1523 76.8437C77.084 76.9803 76.9816 77.0827 76.8354 77.1607C76.694 77.2387 76.4892 77.2728 76.2307 77.2728H75.6115V74.2205H76.2795C76.533 74.2205 76.7232 74.2595 76.8597 74.3326C76.9963 74.4106 77.0938 74.5179 77.162 74.6593C77.2303 74.8007 77.2693 74.9665 77.2742 75.1567C77.2839 75.3468 77.2888 75.5467 77.2888 75.7564C77.2888 75.9856 77.2839 76.1904 77.2693 76.3756H77.2742Z" fill="#06171E"/>
<path d="M85.4611 73.0063L83.457 81.983H84.7443L85.1246 80.0521H86.8751L87.2554 81.983H88.5427L86.5386 73.0063H85.4659H85.4611ZM85.3489 78.8429L85.9779 75.5906H86.0023L86.6313 78.8429H85.344H85.3489Z" fill="#06171E"/>
<path d="M98.6499 81.983V73.0063H97.3627V78.4187H97.3383L95.3977 73.0063H94.1592V81.983H95.4464V76.5902H95.4708L97.4407 81.983H98.6499Z" fill="#06171E"/>
<path d="M107.335 81.983V78.1895L109.1 73.0063H107.739L106.706 76.5756H106.681L105.647 73.0063H104.282L106.047 78.1895V81.983H107.335Z" fill="#06171E"/>
<path d="M42.6938 87.9707V85.718H43.4105V85.3621H41.5869V85.718H42.2988V87.9707H42.6938Z" fill="#06171E"/>
<path d="M46.2877 85.3621L45.3418 87.9658H45.7611L45.961 87.3807H46.9509L47.1508 87.9658H47.5652L46.6193 85.3621H46.2877ZM46.0732 87.0345L46.4486 85.8984H46.4584L46.8338 87.0345H46.0732Z" fill="#06171E"/>
<path d="M50.4124 85.9277C50.4562 85.874 50.5099 85.8301 50.5781 85.796C50.6464 85.7619 50.7244 85.7424 50.8171 85.7424C50.9438 85.7424 51.0511 85.7814 51.1389 85.8496C51.2218 85.9228 51.2803 86.0106 51.3144 86.1178H51.7337C51.6899 85.8984 51.5923 85.718 51.4314 85.5717C51.2754 85.4254 51.0657 85.3523 50.8171 85.3474C50.6123 85.3474 50.4416 85.3962 50.3051 85.4937C50.1637 85.5863 50.0662 85.6936 50.0028 85.8155C49.9638 85.8789 49.9345 85.9618 49.915 86.0642C49.8955 86.1666 49.8857 86.3714 49.8857 86.6737C49.8857 86.976 49.8955 87.171 49.915 87.2783C49.9248 87.3319 49.9345 87.3807 49.9491 87.4197C49.9638 87.4538 49.9833 87.4928 50.0028 87.5319C50.0662 87.6537 50.1686 87.7561 50.3051 87.8488C50.4416 87.9463 50.6123 87.9951 50.8171 87.9999C51.0804 87.9951 51.3047 87.9073 51.4802 87.7318C51.6557 87.5562 51.7435 87.3368 51.7484 87.0735V86.542H50.8219V86.9175H51.3534V87.054C51.3534 87.2198 51.2998 87.3466 51.2023 87.449C51.0999 87.5562 50.9731 87.605 50.8219 87.605C50.7293 87.605 50.6513 87.5855 50.583 87.5465C50.5148 87.5123 50.4611 87.4685 50.4172 87.4148C50.3685 87.3612 50.3343 87.2832 50.3148 87.1954C50.2953 87.1028 50.2856 86.9321 50.2856 86.6737C50.2856 86.4152 50.2953 86.2446 50.3148 86.1519C50.3295 86.0642 50.3636 85.9911 50.4172 85.9374L50.4124 85.9277Z" fill="#06171E"/>
<path d="M54.4014 85.3621V87.9707H56.069V87.5953H54.7963V85.3621H54.4014Z" fill="#06171E"/>
<path d="M59.0287 85.3621H58.6338V87.9658H59.0287V85.3621Z" fill="#06171E"/>
<path d="M61.7734 85.3621V87.9707H62.1684V86.1178H62.1782L63.3533 87.9707H63.7287V85.3621H63.3338V87.2149H63.324L62.144 85.3621H61.7734Z" fill="#06171E"/>
<path d="M68.1363 85.7375V85.3621H66.4736V87.9707H68.1363V87.5953H66.8686V86.8297H67.9511V86.4835H66.8686V85.7375H68.1363Z" fill="#06171E"/>
<path d="M73.8075 85.8106C73.7685 85.874 73.7392 85.9569 73.7197 86.0593C73.7002 86.1617 73.6953 86.3665 73.6953 86.6688C73.6953 86.9711 73.7051 87.1662 73.7197 87.2734C73.7294 87.3271 73.7392 87.3758 73.7538 87.4148C73.7684 87.449 73.788 87.488 73.8075 87.527C73.8709 87.6489 73.9732 87.7513 74.1098 87.8439C74.2463 87.9414 74.417 87.9902 74.6217 87.9951C74.885 87.9902 75.1093 87.9024 75.2849 87.7269C75.4604 87.5514 75.5482 87.3319 75.5531 87.0686V86.5372H74.6266V86.9126H75.1581V87.0491C75.1581 87.2149 75.1045 87.3417 75.0021 87.4441C74.8997 87.5514 74.7729 87.6001 74.6217 87.6001C74.5291 87.6001 74.4511 87.5806 74.3828 87.5416C74.3146 87.5075 74.2609 87.4636 74.217 87.41C74.1683 87.3563 74.1341 87.2783 74.1146 87.1905C74.0951 87.0979 74.0854 86.9272 74.0854 86.6688C74.0854 86.4104 74.0951 86.2397 74.1146 86.1471C74.1293 86.0593 74.1634 85.9862 74.217 85.9325C74.2609 85.8789 74.3146 85.835 74.3828 85.8009C74.4511 85.7668 74.5291 85.7472 74.6217 85.7472C74.7485 85.7472 74.8558 85.7863 74.9436 85.8545C75.0265 85.9277 75.085 86.0154 75.1191 86.1227H75.5384C75.4945 85.9033 75.397 85.7229 75.2361 85.5766C75.0752 85.4303 74.8704 85.3572 74.6217 85.3523C74.417 85.3523 74.2463 85.401 74.1098 85.4986C73.9684 85.5912 73.8709 85.6985 73.8075 85.8204V85.8106Z" fill="#06171E"/>
<path d="M78.2342 85.8109C78.1952 85.8742 78.1659 85.9571 78.1464 86.0595C78.1269 86.1619 78.1172 86.3667 78.1172 86.669C78.1172 86.9713 78.1269 87.1664 78.1464 87.2737C78.1562 87.3273 78.1659 87.3761 78.1806 87.4151C78.1952 87.4492 78.2147 87.4882 78.2342 87.5272C78.2976 87.6491 78.4 87.7515 78.5365 87.8441C78.673 87.9417 78.8437 87.9904 79.0485 87.9953C79.2582 87.9904 79.4288 87.9417 79.5654 87.8441C79.7019 87.7515 79.7994 87.6442 79.8628 87.5272C79.9067 87.4638 79.9359 87.3809 79.9554 87.2737C79.97 87.1713 79.9798 86.9665 79.9798 86.669C79.9798 86.3716 79.97 86.1619 79.9554 86.0595C79.9408 85.9571 79.9067 85.8742 79.8628 85.8109C79.8043 85.689 79.7019 85.5817 79.5654 85.489C79.4288 85.3915 79.2533 85.3428 79.0485 85.3428C78.8437 85.3428 78.673 85.3915 78.5365 85.489C78.3951 85.5817 78.2976 85.689 78.2342 85.8109ZM78.5463 86.1424C78.5609 86.0547 78.595 85.9815 78.6487 85.9279C78.6925 85.8742 78.7462 85.8304 78.8144 85.7962C78.8827 85.7621 78.9607 85.7426 79.0534 85.7426C79.146 85.7426 79.2289 85.7621 79.2972 85.7962C79.3606 85.8304 79.4142 85.8791 79.4532 85.9279C79.5068 85.9815 79.541 86.0547 79.5605 86.1424C79.58 86.2351 79.5897 86.4106 79.5897 86.6642C79.5897 86.9177 79.58 87.0932 79.5605 87.1859C79.541 87.2785 79.5068 87.3517 79.4532 87.4053C79.4142 87.4589 79.3606 87.5028 79.2972 87.537C79.2289 87.576 79.146 87.5955 79.0534 87.5955C78.9607 87.5955 78.8827 87.576 78.8144 87.537C78.7462 87.5028 78.6925 87.4589 78.6487 87.4053C78.595 87.3517 78.5658 87.2737 78.5463 87.1859C78.5268 87.0932 78.517 86.9226 78.517 86.6642C78.517 86.4057 78.5268 86.2351 78.5463 86.1424Z" fill="#06171E"/>
<path d="M82.6377 87.9707H84.3004V87.5953H83.0326V86.8297H84.1151V86.4835H83.0326V85.7375H84.3004V85.3621H82.6377V87.9707Z" fill="#06171E"/>
<path d="M87.6402 87.5955C87.3525 87.5955 87.1087 87.5077 86.8991 87.337L86.6406 87.6345C86.9186 87.8734 87.2501 87.9904 87.6353 87.9904C88.2302 87.9855 88.5374 87.732 88.552 87.2346C88.552 87.0493 88.4935 86.8884 88.3765 86.747C88.2594 86.6056 88.079 86.5179 87.8352 86.4837C87.7133 86.4691 87.6158 86.4545 87.5427 86.4447C87.4159 86.4204 87.3184 86.3765 87.2599 86.318C87.2014 86.2595 87.1721 86.1912 87.1721 86.1132C87.1721 85.9864 87.216 85.8938 87.3038 85.8304C87.3867 85.7719 87.4842 85.7377 87.6061 85.7377C87.8401 85.7377 88.0547 85.8109 88.2497 85.9376L88.4691 85.6109C88.2302 85.4403 87.9474 85.3476 87.6256 85.3428C87.3574 85.3428 87.1477 85.4159 87.0015 85.5524C86.8503 85.6938 86.7723 85.8743 86.7723 86.1034C86.7723 86.2936 86.8308 86.4545 86.9527 86.5861C87.0697 86.7129 87.2404 86.7958 87.4647 86.8348C87.5914 86.8543 87.7036 86.8689 87.8109 86.8836C88.04 86.9226 88.1522 87.0396 88.1522 87.2346C88.1522 87.4736 87.9766 87.5906 87.6353 87.5955H87.6402Z" fill="#06171E"/>
<path d="M96.0609 87.9707V85.3621H95.666V86.4835H94.6323V85.3621H94.2373V87.9707H94.6323V86.8297H95.666V87.9707H96.0609Z" fill="#06171E"/>
<path d="M100.469 85.7375V85.3621H98.8066V87.9707H100.469V87.5953H99.2016V86.8297H100.284V86.4835H99.2016V85.7375H100.469Z" fill="#06171E"/>
<path d="M104.341 86.8151C104.673 86.6883 104.838 86.4494 104.843 86.0935C104.838 85.8545 104.751 85.6693 104.585 85.5376C104.448 85.4255 104.273 85.3669 104.053 85.3669H103.034V87.9707H103.429V86.859H103.931L104.468 87.9707H104.936L104.331 86.8151H104.341ZM103.434 86.5079V85.718H104.053C104.18 85.718 104.278 85.7424 104.341 85.796C104.424 85.8545 104.468 85.9569 104.473 86.0886C104.473 86.2007 104.438 86.2983 104.365 86.3763C104.292 86.4592 104.18 86.503 104.034 86.503H103.439L103.434 86.5079Z" fill="#06171E"/>
<path d="M109.129 85.7375V85.3621H107.466V87.9707H109.129V87.5953H107.861V86.8297H108.943V86.4835H107.861V85.7375H109.129Z" fill="#06171E"/>
</svg>
