<svg width="141" height="100" viewBox="0 0 141 100" fill="none" xmlns="http://www.w3.org/2000/svg">
<path d="M83.2408 27.1841L75.2754 35.1494L78.3517 38.2257L86.317 30.2603L83.2408 27.1841Z" fill="#06171E"/>
<path d="M67.146 43.2759L59.1807 51.2412L62.2569 54.3175L70.2223 46.3521L67.146 43.2759Z" fill="#06171E"/>
<path d="M78.1841 22.1252L70.2188 30.0906L73.295 33.1669L81.2604 25.2015L78.1841 22.1252Z" fill="#06171E"/>
<path d="M62.0845 38.2217L54.1191 46.187L57.1954 49.2633L65.1608 41.2979L62.0845 38.2217Z" fill="#06171E"/>
<path d="M57.1944 27.1759L54.1182 30.2522L62.0835 38.2176L65.1598 35.1413L57.1944 27.1759Z" fill="#06171E"/>
<path d="M62.253 22.1146L59.1768 25.1909L67.1421 33.1563L70.2184 30.08L62.253 22.1146Z" fill="#06171E"/>
<path d="M78.3536 38.2142L75.2773 41.2905L83.2427 49.2559L86.319 46.1796L78.3536 38.2142Z" fill="#06171E"/>
<path d="M73.295 43.2755L70.2188 46.3518L78.1841 54.3171L81.2604 51.2409L73.295 43.2755Z" fill="#06171E"/>
<path d="M81.2613 57.3956L78.1812 54.3201L70.2205 62.2808L62.2552 54.3201L59.1797 57.3956L70.2205 68.4364L81.2613 57.3956Z" fill="#06171E"/>
<path d="M54.1209 30.2552L51.0408 27.1797L40 38.2205L51.0408 49.2567L54.1209 46.1812L46.1556 38.2205L54.1209 30.2552Z" fill="#06171E"/>
<path d="M89.3958 27.1797L86.3203 30.2552L94.281 38.2205L86.3203 46.1812L89.3958 49.2567L100.437 38.2205L89.3958 27.1797Z" fill="#06171E"/>
<path d="M78.1812 22.1209L81.2613 19.0408L70.2205 8L59.1797 19.0408L62.2552 22.1209L70.2205 14.1556L78.1812 22.1209Z" fill="#06171E"/>
<path d="M44.8528 82.2055C45.3281 81.8445 45.6525 81.3007 45.8353 80.6061L45.8536 80.5512L44.8893 80.3136L44.8711 80.373C44.7568 80.8894 44.5375 81.2778 44.2221 81.5429C43.8977 81.7988 43.5092 81.9313 43.0385 81.9313C42.6592 81.9313 42.3073 81.8354 41.9737 81.6434C41.6493 81.4515 41.4117 81.159 41.2609 80.766C41.1009 80.3776 41.0232 79.9069 41.0232 79.3859C41.0232 78.9746 41.0918 78.577 41.2243 78.1932C41.3568 77.8139 41.5853 77.5077 41.9006 77.2792C42.2251 77.0599 42.6364 76.9456 43.1117 76.9456C43.5321 76.9456 43.8748 77.0416 44.149 77.2518C44.4232 77.4529 44.6334 77.7773 44.7797 78.2252L44.7979 78.2709L45.7485 78.0515L45.7302 77.9967C45.5474 77.4072 45.2366 76.9411 44.7888 76.6075C44.341 76.283 43.788 76.123 43.1299 76.123C42.5587 76.123 42.024 76.2464 41.5396 76.5023C41.0644 76.7674 40.6805 77.1512 40.4246 77.6448C40.1687 78.1383 40.0361 78.7324 40.0361 79.3859C40.0361 79.9937 40.1504 80.5786 40.3789 81.0996C40.6074 81.6343 40.9501 82.0501 41.398 82.3289C41.8367 82.6168 42.417 82.7585 43.1208 82.7585C43.8245 82.7585 44.3775 82.5666 44.8528 82.2055Z" fill="#06171E"/>
<path d="M54.6971 81.1862C54.9622 80.679 55.0993 80.0895 55.0993 79.4451C55.0993 78.8008 54.9668 78.2341 54.72 77.7314C54.4641 77.2287 54.0893 76.8266 53.6049 76.5387C53.1205 76.2508 52.5676 76.1091 51.9644 76.1091C51.0413 76.1091 50.2781 76.4153 49.6977 77.014C49.1173 77.6126 48.8203 78.4626 48.8203 79.5183C48.8203 80.0804 48.9437 80.615 49.1996 81.1177C49.4464 81.6204 49.8165 82.0225 50.3055 82.3196C50.7899 82.6166 51.3429 82.7583 51.9552 82.7583C52.5265 82.7583 53.0611 82.6257 53.5455 82.3561C54.0391 82.1002 54.423 81.6981 54.6971 81.1862ZM51.9552 81.9311C51.3474 81.9311 50.8311 81.7118 50.4198 81.2914C50.0176 80.8618 49.812 80.2723 49.812 79.5274C49.812 78.6043 50.0313 77.9279 50.4518 77.5349C50.8722 77.1465 51.384 76.9454 51.9644 76.9454C52.3848 76.9454 52.7549 77.0505 53.0885 77.2516C53.413 77.4527 53.6689 77.7452 53.8426 78.1199C54.0162 78.49 54.0985 78.9379 54.0985 79.4451C54.0985 80.2357 53.8974 80.8572 53.4998 81.2822C53.0977 81.7118 52.5767 81.9311 51.9552 81.9311Z" fill="#06171E"/>
<path d="M64.6868 76.3286H63.7637V82.7584H64.6868V76.3286Z" fill="#06171E"/>
<path d="M61.9714 82.7585L63.4201 78.673V76.3881L61.8846 80.7614C61.7612 81.1133 61.6652 81.3921 61.5967 81.6114L61.3408 80.8483L59.8053 76.3333H59.7002V78.6684L61.1214 82.7631H61.9714V82.7585Z" fill="#06171E"/>
<path d="M59.3629 76.3286H58.4307V82.7584H59.3629V76.3286Z" fill="#06171E"/>
<path d="M72.5097 79.6143C72.8707 79.235 73.0535 78.7643 73.0535 78.2159C73.0535 77.8914 72.985 77.5989 72.8524 77.3293C72.7108 77.0643 72.5371 76.8449 72.3086 76.6987C72.0893 76.5479 71.8151 76.4428 71.4998 76.3925C71.2713 76.3468 70.9377 76.324 70.5081 76.324H69.3291V77.1831H70.5767C70.956 77.1831 71.2165 77.2014 71.3581 77.2425C71.5683 77.2973 71.7374 77.4162 71.8608 77.5944C71.9933 77.7772 72.0527 77.9828 72.0527 78.2433C72.0527 78.586 71.9476 78.8511 71.7283 79.043C71.5089 79.235 71.1296 79.3309 70.5949 79.3309H69.3291V80.1992H70.5858C71.4998 80.1992 72.1578 79.9981 72.5097 79.6188V79.6143Z" fill="#06171E"/>
<path d="M68.9867 76.3286H68.0225V82.7584H68.9867V76.3286Z" fill="#06171E"/>
<path d="M79.8908 76.3286H78.8992L76.3857 82.7584H77.4048L77.6927 82.0044H77.6836L78.4056 80.0531L78.5564 79.6509L79.0911 78.2297H79.1002C79.2145 77.9144 79.3104 77.5899 79.3881 77.2792C79.4841 77.5853 79.6166 77.9555 79.7766 78.3759L80.4255 80.0531H78.7758L78.4787 80.8436H80.7271L81.4811 82.7584H82.5779L79.8908 76.3286Z" fill="#06171E"/>
<path d="M90.0449 81.127V82.7584H91V76.3286H90.0678V81.159L90.0449 81.127Z" fill="#06171E"/>
<path d="M86.7131 76.3286H85.8174V82.7584H86.7131V76.3286Z" fill="#06171E"/>
<path d="M89.7016 80.6242L87.0557 76.7444V78.3849L89.7016 82.2693V80.6242Z" fill="#06171E"/>
<path d="M99.3258 76.3286L98.0599 78.216C97.8132 78.5861 97.5938 78.938 97.4019 79.2442V79.2351L96.8672 80.0439V82.7584H97.8406V80.0439L100.459 76.3286H99.3258Z" fill="#06171E"/>
<path d="M96.7991 78.2617L95.515 76.3286H94.3359L96.6574 79.7377L97.2012 78.8969L96.7991 78.2617Z" fill="#06171E"/>
<path d="M41.0278 87.9817V85.9664H41.6676V85.6511H40.0361V85.9664H40.6714V87.9817H41.0278Z" fill="#06171E"/>
<path d="M44.538 85.6511H44.2409L43.3955 87.9817H43.7702L43.953 87.4562H44.835L45.0132 87.9817H45.388L44.5425 85.6511H44.538ZM44.049 87.1455L44.3872 86.1264H44.3917L44.7253 87.1455H44.0444H44.049Z" fill="#06171E"/>
<path d="M47.9329 86.1539C47.9695 86.1037 48.0198 86.0671 48.0792 86.0351C48.1386 86.0032 48.2117 85.9894 48.2939 85.9849C48.4082 85.9849 48.5042 86.0214 48.5818 86.0808C48.6595 86.1448 48.7098 86.2271 48.7372 86.3185H49.1119C49.0754 86.122 48.984 85.9574 48.8423 85.8295C48.7007 85.697 48.5179 85.633 48.2939 85.6284C48.1111 85.6284 47.9558 85.6741 47.837 85.7609C47.7136 85.8432 47.6222 85.9392 47.5673 86.0488C47.5308 86.1037 47.5079 86.1814 47.4896 86.2728C47.4759 86.3642 47.4668 86.5469 47.4668 86.8166C47.4668 87.0862 47.4759 87.2644 47.4896 87.3558C47.4988 87.4061 47.5079 87.4472 47.5216 87.4792C47.5353 87.5112 47.5491 87.5432 47.5673 87.5797C47.6222 87.6894 47.7136 87.7808 47.837 87.8631C47.9603 87.9499 48.1111 87.991 48.2939 87.9956C48.5316 87.9956 48.7281 87.9088 48.8834 87.7534C49.0388 87.5934 49.1211 87.4015 49.1211 87.1685V86.6932H48.2939V87.0268H48.7692V87.1502C48.7692 87.2964 48.7189 87.4152 48.6321 87.5021C48.5407 87.598 48.431 87.6437 48.2894 87.6437C48.2071 87.6437 48.134 87.6254 48.0746 87.5889C48.0152 87.5569 47.9649 87.5203 47.9284 87.4701C47.8827 87.4198 47.8507 87.3558 47.837 87.2736C47.8187 87.1913 47.8095 87.0359 47.8095 86.8075C47.8095 86.579 47.8187 86.4236 47.837 86.3367C47.8507 86.2591 47.8827 86.1951 47.9284 86.1448L47.9329 86.1539Z" fill="#06171E"/>
<path d="M51.502 85.6511V87.9817H52.9917V87.6482H51.8538V85.6511H51.502Z" fill="#06171E"/>
<path d="M55.6429 85.6511H55.291V87.9817H55.6429V85.6511Z" fill="#06171E"/>
<path d="M58.4531 86.3229H58.4577L59.5133 87.9817H59.8469V85.6511H59.4905V87.3054H59.4859L58.4303 85.6511H58.0967V87.9817H58.4531V86.3229Z" fill="#06171E"/>
<path d="M63.7906 85.9847V85.6511H62.3008V87.9817H63.7906V87.6482H62.6572V86.9627H63.626V86.6473H62.6572V85.9847H63.7906Z" fill="#06171E"/>
<path d="M68.8172 87.4791C68.8309 87.5111 68.8446 87.543 68.8629 87.5796C68.9177 87.6893 69.0092 87.7807 69.1325 87.863C69.2559 87.9498 69.4067 87.9909 69.5895 87.9955C69.8272 87.9955 70.0237 87.9086 70.179 87.7533C70.3344 87.5933 70.4167 87.4014 70.4167 87.1683V86.6931H69.5895V87.0267H70.0648V87.1501C70.0648 87.2963 70.0145 87.4151 69.9277 87.5019C69.8363 87.5979 69.7266 87.6436 69.585 87.6436C69.5027 87.6436 69.4296 87.6253 69.3702 87.5888C69.3108 87.5568 69.2605 87.5202 69.2239 87.4699C69.1782 87.4197 69.1463 87.3557 69.1325 87.2734C69.1143 87.1912 69.1051 87.0358 69.1051 86.8073C69.1051 86.5788 69.1143 86.4234 69.1325 86.3366C69.1463 86.2589 69.1782 86.195 69.2239 86.1447C69.2605 86.0944 69.3108 86.0579 69.3702 86.0259C69.4296 85.9939 69.5027 85.9802 69.585 85.9756C69.6992 85.9756 69.7952 86.0121 69.8729 86.0716C69.9505 86.1355 70.0008 86.2178 70.0282 86.3092H70.403C70.3664 86.1127 70.275 85.9482 70.1333 85.8202C69.9917 85.6877 69.8089 85.6237 69.585 85.6191C69.4022 85.6191 69.2468 85.6648 69.128 85.7517C69.0046 85.8339 68.9132 85.9299 68.8583 86.0396C68.8218 86.0944 68.7989 86.1721 68.7807 86.2635C68.7669 86.3549 68.7578 86.5377 68.7578 86.8073C68.7578 87.0769 68.7669 87.2552 68.7807 87.3466C68.7898 87.3968 68.7989 87.4379 68.8126 87.4699L68.8172 87.4791Z" fill="#06171E"/>
<path d="M72.7794 87.4792C72.7932 87.5112 72.8069 87.5432 72.8251 87.5797C72.88 87.6894 72.9714 87.7808 73.0993 87.8631C73.2227 87.9499 73.3735 87.991 73.5563 87.9956C73.7437 87.9956 73.8945 87.9453 74.0179 87.8631C74.1412 87.7808 74.2281 87.6848 74.2829 87.5797C74.324 87.5249 74.3515 87.4472 74.3652 87.3558C74.3789 87.2598 74.388 87.0816 74.388 86.8166C74.388 86.5515 74.3789 86.3642 74.3652 86.2728C74.3515 86.1814 74.324 86.1082 74.2829 86.0488C74.2281 85.9392 74.1412 85.8432 74.0179 85.7609C73.8945 85.6741 73.7391 85.633 73.5563 85.6284C73.3735 85.6284 73.2182 85.6741 73.0993 85.7609C72.976 85.8432 72.8845 85.9392 72.8251 86.0488C72.7886 86.1037 72.7657 86.1814 72.7475 86.2728C72.7292 86.3642 72.7246 86.5469 72.7246 86.8166C72.7246 87.0862 72.7337 87.2644 72.7475 87.3558C72.7566 87.4061 72.7657 87.4472 72.7794 87.4792ZM73.1039 86.3459C73.1176 86.2682 73.1496 86.2042 73.1953 86.1539C73.2318 86.1037 73.2821 86.0671 73.3415 86.0351C73.4009 86.0032 73.4741 85.9894 73.5563 85.9849C73.6386 85.9849 73.7117 86.0032 73.7757 86.0351C73.8351 86.0671 73.8808 86.1082 73.9173 86.1539C73.963 86.2042 73.995 86.2682 74.0133 86.3459C74.0316 86.4281 74.0362 86.5835 74.0362 86.8166C74.0362 87.0496 74.027 87.2004 74.0133 87.2827C73.995 87.365 73.963 87.4289 73.9173 87.4792C73.8808 87.5249 73.8351 87.566 73.7757 87.598C73.7117 87.6346 73.6386 87.6529 73.5563 87.6529C73.4741 87.6529 73.4009 87.6346 73.3415 87.598C73.2821 87.566 73.2318 87.5295 73.1953 87.4792C73.1496 87.4289 73.1176 87.365 73.1039 87.2827C73.0856 87.2004 73.0765 87.0451 73.0765 86.8166C73.0765 86.5881 73.0856 86.4327 73.1039 86.3459Z" fill="#06171E"/>
<path d="M78.2544 85.9847V85.6511H76.7646V87.9817H78.2544V87.6482H77.1165V86.9627H78.0853V86.6473H77.1165V85.9847H78.2544Z" fill="#06171E"/>
<path d="M81.2385 87.6481C80.9826 87.6481 80.7632 87.5704 80.5758 87.415L80.3428 87.6801C80.5895 87.8949 80.8866 88 81.2339 88C81.7686 87.9954 82.0428 87.7669 82.0519 87.3236C82.0519 87.1591 82.0016 87.0129 81.8965 86.8895C81.7914 86.7616 81.6315 86.6839 81.4121 86.6565C81.3025 86.6427 81.2156 86.629 81.1516 86.6199C81.0374 86.597 80.9551 86.5605 80.9003 86.5056C80.85 86.4508 80.8226 86.3914 80.8226 86.3228C80.8226 86.2086 80.8637 86.1263 80.9414 86.0715C81.0145 86.0167 81.106 85.9892 81.2111 85.9892C81.4213 85.9892 81.6132 86.0532 81.7868 86.1675L81.9834 85.875C81.7686 85.7196 81.5172 85.642 81.2248 85.6328C80.9826 85.6328 80.7998 85.6968 80.6672 85.8202C80.5301 85.9436 80.4662 86.1081 80.4662 86.3137C80.4662 86.4828 80.521 86.629 80.6261 86.7433C80.7312 86.8575 80.882 86.9306 81.0831 86.9672C81.1973 86.9809 81.2979 86.9992 81.3938 87.0083C81.5995 87.0449 81.7 87.15 81.6955 87.3236C81.6955 87.5339 81.5355 87.6435 81.2339 87.6481H81.2385Z" fill="#06171E"/>
<path d="M88.774 87.9817V85.6511H88.4176V86.6473H87.499V85.6511H87.1426V87.9817H87.499V86.9627H88.4176V87.9817H88.774Z" fill="#06171E"/>
<path d="M92.7176 85.9847V85.6511H91.2324V87.9817H92.7176V87.6482H91.5843V86.9627H92.5531V86.6473H91.5843V85.9847H92.7176Z" fill="#06171E"/>
<path d="M96.6344 86.3C96.6298 86.0852 96.5521 85.9207 96.4013 85.8019C96.2779 85.7013 96.1225 85.6465 95.926 85.6465H95.0166V87.9771H95.3685V86.9809H95.8209L96.3007 87.9771H96.7212L96.1819 86.9443C96.479 86.8301 96.6298 86.6153 96.6344 86.3ZM96.2048 86.5559C96.1408 86.629 96.0403 86.6701 95.9077 86.6701H95.3731V85.9618H95.926C96.0402 85.9618 96.1271 85.9847 96.1865 86.0349C96.2642 86.0898 96.3007 86.1766 96.3053 86.3C96.3053 86.4005 96.2733 86.4873 96.2094 86.5559H96.2048Z" fill="#06171E"/>
<path d="M100.468 85.9847V85.6511H98.9785V87.9817H100.468V87.6482H99.3304V86.9627H100.299V86.6473H99.3304V85.9847H100.468Z" fill="#06171E"/>
</svg>
