<svg width="149" height="100" viewBox="0 0 149 100" fill="none" xmlns="http://www.w3.org/2000/svg">
<path d="M62.8858 55.0588L67.6674 57.8195L73.509 54.4473L68.7274 51.6866V11.2091L63.177 8L62.6878 8.27955L40.6377 21.011V27.7554L62.8858 14.9016V55.0588Z" fill="#06171E"/>
<path d="M79.8806 11.2091V53.6843L63.177 63.3349L46.4735 53.6843V27.3069L40.6377 30.6733V55.0588L63.177 68.0757L85.7163 55.0588V14.9016L107.97 27.7554V21.011L85.4309 8L79.8806 11.2091Z" fill="#06171E"/>
<path d="M82.6707 59.7355L76.8291 63.1135L85.4313 68.0757L107.971 55.0588V30.6732L102.129 27.3069V51.6866L85.4313 61.3372L82.6707 59.7355Z" fill="#06171E"/>
<path d="M55.5244 86.1072H56.1884V88.0001H56.6659V86.1072H57.3299V85.6296H55.5244V86.1072Z" fill="#06171E"/>
<path d="M59.9684 85.6296L59.1123 88.0001H59.6132L59.852 87.3361H60.58L60.8188 88.0001H61.3196L60.4635 85.6296H59.9626H59.9684ZM60.0267 86.8643L60.2189 86.3285L60.4111 86.8643H60.0267Z" fill="#06171E"/>
<path d="M65.0989 86.7654H64.3883V87.243H64.9591C64.8252 87.4177 64.6213 87.5283 64.3883 87.5283C63.9923 87.5283 63.6778 87.208 63.6778 86.8178C63.6778 86.4276 63.9981 86.1072 64.3883 86.1072C64.5747 86.1072 64.7436 86.1771 64.8718 86.2994L65.2037 85.9616C64.9882 85.7578 64.7029 85.6355 64.3883 85.6355C63.736 85.6355 63.2061 86.1655 63.2061 86.8178C63.2061 87.4701 63.736 88.0001 64.3883 88.0001C65.0406 88.0001 65.5706 87.4701 65.5706 86.8178C65.5706 86.8003 65.5706 86.7887 65.5706 86.7712H65.0989V86.7654Z" fill="#06171E"/>
<path d="M68.6466 85.6296H68.1748V88.0001H69.5085V87.5225H68.6466V85.6296Z" fill="#06171E"/>
<path d="M72.0762 85.6296H71.6045V88.0001H72.0762V85.6296Z" fill="#06171E"/>
<path d="M75.6706 87.2138L74.7213 85.6296H74.168V88.0001H74.6397V86.4217L75.5949 88.0001H76.1423V85.6296H75.6706V87.2138Z" fill="#06171E"/>
<path d="M78.2383 88.0001H79.6652V87.5225H78.71V87.0507H79.6652V86.579H78.71V86.1072H79.6652V85.6296H78.2383V88.0001Z" fill="#06171E"/>
<path d="M84.488 86.579H83.626V85.6296H83.1543V88.0001H83.626V87.0507H84.488V88.0001H84.9598V85.6296H84.488V86.579Z" fill="#06171E"/>
<path d="M87.0566 88.0001H88.4836V87.5225H87.5284V87.0507H88.4836V86.579H87.5284V86.1072H88.4836V85.6296H87.0566V88.0001Z" fill="#06171E"/>
<path d="M92.0012 86.3402C92.0012 85.9441 91.6867 85.6296 91.2906 85.6296H90.5801V88.0001H91.0518V87.0507H91.145L91.576 88.0001H92.0944L91.6284 86.9692C91.8497 86.8527 92.0012 86.6139 92.0012 86.346V86.3402ZM91.2906 86.5731H91.0518V86.1014H91.2906C91.4246 86.1014 91.5294 86.2062 91.5294 86.3402C91.5294 86.4741 91.4246 86.5731 91.2906 86.5731Z" fill="#06171E"/>
<path d="M94.1387 88.0001H95.5714V87.5225H94.6104V87.0507H95.5714V86.579H94.6104V86.1072H95.5714V85.6296H94.1387V88.0001Z" fill="#06171E"/>
<path d="M43.8413 77.0681C44.4062 77.0681 44.9304 77.2894 45.3148 77.6505L46.3399 76.6196C45.6876 75.9964 44.8081 75.6121 43.8413 75.6121C41.8436 75.6121 40.2129 77.237 40.2129 79.2405C40.2129 81.244 41.8378 82.8689 43.8413 82.8689C44.8081 82.8689 45.6876 82.4845 46.3399 81.8613L45.3148 80.8363C44.9304 81.1916 44.4062 81.4129 43.8413 81.4129C42.6357 81.4129 41.6573 80.4461 41.6573 79.2405C41.6573 78.0349 42.6357 77.0681 43.8413 77.0681Z" fill="#06171E"/>
<path d="M53.9868 75.6121C51.9892 75.6121 50.3584 77.237 50.3584 79.2405C50.3584 81.244 51.9833 82.8689 53.9868 82.8689C55.9903 82.8689 57.6152 81.244 57.6152 79.2405C57.6152 77.237 55.9903 75.6121 53.9868 75.6121ZM53.9868 81.4187C52.7812 81.4187 51.8028 80.4403 51.8028 79.2347C51.8028 78.0291 52.7812 77.0623 53.9868 77.0623C55.1924 77.0623 56.1592 78.0407 56.1592 79.2347C56.1592 80.4286 55.1808 81.4187 53.9868 81.4187Z" fill="#06171E"/>
<path d="M69.473 82.8689V75.6121H67.9121L65.798 80.9178L63.6722 75.6121H62.1113V82.8689H63.5557V79.2405L65.0117 82.8689H66.5726L68.0286 79.2405V82.8689H69.473Z" fill="#06171E"/>
<path d="M75.9965 75.6123H73.9697V82.8633H75.4141V79.9629H76.0082C77.2021 79.9629 78.1689 78.9844 78.1689 77.7905C78.1689 76.5965 77.2021 75.6064 75.9965 75.6064V75.6123ZM75.9965 78.5127H75.4141V77.0683H75.9965C76.3984 77.0683 76.7245 77.3945 76.7245 77.7963C76.7245 78.1982 76.3984 78.5127 75.9965 78.5127Z" fill="#06171E"/>
<path d="M84.3308 75.6121L81.71 82.8631H83.2533L83.993 80.8363H86.2236L86.9575 82.8631H88.5009L85.88 75.6121H84.3366H84.3308ZM84.5114 79.3803L85.0938 77.7437L85.6878 79.3803H84.5114Z" fill="#06171E"/>
<path d="M97.3941 80.4577L94.4937 75.6121H92.8047V82.8689H94.2491V78.0349L97.1553 82.8689H98.8385V75.6121H97.3941V80.4577Z" fill="#06171E"/>
<path d="M105.769 77.6214L104.762 75.6121H103.148L105.041 79.4152V82.8689H106.486V79.4152L108.384 75.6121H106.765L105.769 77.6214Z" fill="#06171E"/>
</svg>
